<svg id="Layer_1" data-name="Layer 1" xmlns="http://www.w3.org/2000/svg" xmlns:xlink="http://www.w3.org/1999/xlink" viewBox="0 0 313 277.59" width="406" height="306" class="illustration"><defs><linearGradient id="linear-gradient" x1="753.29" y1="179.37" x2="754.29" y2="272.23" gradientTransform="matrix(1, 0, 0, -1, -529.27, 367.65)" gradientUnits="userSpaceOnUse"><stop offset="0" stop-color="#010101" stop-opacity="0"></stop><stop offset="0.95" stop-color="#010101"></stop></linearGradient><linearGradient id="linear-gradient-2" x1="409.51" y1="373.31" x2="797.77" y2="173.12" gradientTransform="matrix(1, 0, 0, -1, -529.27, 367.65)" gradientUnits="userSpaceOnUse"><stop offset="0" stop-color="#fff" stop-opacity="0"></stop><stop offset="0.07" stop-color="#fff" stop-opacity="0.22"></stop><stop offset="0.16" stop-color="#fff" stop-opacity="0.45"></stop><stop offset="0.25" stop-color="#fff" stop-opacity="0.65"></stop><stop offset="0.33" stop-color="#fff" stop-opacity="0.8"></stop><stop offset="0.4" stop-color="#fff" stop-opacity="0.91"></stop><stop offset="0.46" stop-color="#fff" stop-opacity="0.98"></stop><stop offset="0.51" stop-color="#fff"></stop></linearGradient><linearGradient id="linear-gradient-3" x1="634.86" y1="127.12" x2="683.56" y2="247.06" gradientTransform="matrix(1, 0, 0, -1, -536.11, 365.64)" xlink:href="#linear-gradient"></linearGradient><linearGradient id="linear-gradient-4" x1="625.58" y1="132.85" x2="755.78" y2="303.22" gradientTransform="matrix(1, 0, 0, -1, -536.11, 365.64)" xlink:href="#linear-gradient"></linearGradient><linearGradient id="linear-gradient-5" x1="664.61" y1="242.26" x2="613.67" y2="215.42" gradientTransform="matrix(1, 0, 0, -1, -536.11, 365.64)" xlink:href="#linear-gradient"></linearGradient><linearGradient id="linear-gradient-6" x1="646.09" y1="235.17" x2="555.11" y2="248.61" gradientTransform="matrix(1, 0, 0, -1, -536.11, 365.64)" xlink:href="#linear-gradient"></linearGradient><linearGradient id="linear-gradient-7" x1="554.13" y1="-559.64" x2="565.29" y2="-559.64" gradientTransform="matrix(0.88, -0.47, -0.47, -0.88, -648.11, -136.16)" gradientUnits="userSpaceOnUse"><stop offset="0" stop-color="#e4c5d5"></stop><stop offset="0.42" stop-color="#e9d3cf"></stop><stop offset="1" stop-color="#efe8ca"></stop></linearGradient><linearGradient id="linear-gradient-8" x1="639.46" y1="262.01" x2="692.34" y2="336.53" gradientTransform="matrix(1, 0, 0, -1, -536.11, 365.64)" xlink:href="#linear-gradient"></linearGradient><linearGradient id="linear-gradient-9" x1="645.97" y1="221.72" x2="673.55" y2="221.72" gradientTransform="matrix(1, 0, 0, -1, -536.11, 365.64)" xlink:href="#linear-gradient-7"></linearGradient><linearGradient id="linear-gradient-10" x1="680.88" y1="221.96" x2="710.78" y2="221.96" gradientTransform="matrix(1, 0, 0, -1, -536.11, 365.64)" xlink:href="#linear-gradient-7"></linearGradient><linearGradient id="linear-gradient-11" x1="679.4" y1="229.74" x2="685.89" y2="203.61" xlink:href="#linear-gradient"></linearGradient><linearGradient id="linear-gradient-12" x1="707.55" y1="274.5" x2="734.51" y2="116.38" xlink:href="#linear-gradient"></linearGradient><linearGradient id="linear-gradient-13" x1="708.95" y1="274.36" x2="735.68" y2="117.53" xlink:href="#linear-gradient"></linearGradient><linearGradient id="linear-gradient-14" x1="696.52" y1="243.45" x2="751.74" y2="217.64" xlink:href="#linear-gradient"></linearGradient><linearGradient id="linear-gradient-15" x1="683.37" y1="194" x2="629.68" y2="121.6" gradientTransform="matrix(1, 0, 0, -1, -536.11, 365.64)" xlink:href="#linear-gradient"></linearGradient><linearGradient id="linear-gradient-16" x1="699.07" y1="156.12" x2="627.75" y2="186.78" gradientTransform="matrix(1, 0, 0, -1, -536.11, 365.64)" xlink:href="#linear-gradient"></linearGradient><linearGradient id="linear-gradient-17" x1="696.67" y1="223.77" x2="697.35" y2="206.33" xlink:href="#linear-gradient"></linearGradient><linearGradient id="linear-gradient-18" x1="681.3" y1="222.73" x2="682.2" y2="203.38" xlink:href="#linear-gradient"></linearGradient><linearGradient id="linear-gradient-19" x1="638.35" y1="284.91" x2="671.09" y2="284.91" gradientTransform="matrix(1, 0, 0, -1, -536.11, 365.64)" xlink:href="#linear-gradient-7"></linearGradient><linearGradient id="linear-gradient-20" x1="628.2" y1="282.21" x2="661.63" y2="270.8" gradientTransform="matrix(1, 0, 0, -1, -536.11, 365.64)" xlink:href="#linear-gradient"></linearGradient><linearGradient id="linear-gradient-21" x1="170.32" y1="1332.59" x2="214.21" y2="1365.76" gradientTransform="matrix(0.78, 0.63, 0.63, -0.78, -795.31, 987.01)" xlink:href="#linear-gradient"></linearGradient><linearGradient id="linear-gradient-22" x1="178.96" y1="1339.73" x2="241.89" y2="1385.72" gradientTransform="matrix(0.78, 0.63, 0.63, -0.78, -795.31, 986.97)" xlink:href="#linear-gradient"></linearGradient><linearGradient id="linear-gradient-23" x1="188.51" y1="1345.04" x2="281.11" y2="1435.8" gradientTransform="matrix(0.78, 0.63, 0.63, -0.78, -794.94, 988.51)" xlink:href="#linear-gradient"></linearGradient><linearGradient id="linear-gradient-24" x1="200.66" y1="1355.37" x2="339.13" y2="1482.57" gradientTransform="matrix(0.78, 0.63, 0.63, -0.78, -794.93, 988.46)" gradientUnits="userSpaceOnUse"><stop offset="0" stop-color="#010101" stop-opacity="0"></stop><stop offset="0.36" stop-color="#010101" stop-opacity="0.36"></stop><stop offset="0.95" stop-color="#010101"></stop></linearGradient><linearGradient id="linear-gradient-25" x1="220.49" y1="56.19" x2="364.93" y2="65.48" gradientUnits="userSpaceOnUse"><stop offset="0" stop-color="#fff" stop-opacity="0"></stop><stop offset="0.5" stop-color="#fff"></stop></linearGradient><linearGradient id="linear-gradient-26" x1="222.19" y1="57.37" x2="302.57" y2="57.93" gradientTransform="translate(0.23 -1.02) rotate(0.23)" xlink:href="#linear-gradient-25"></linearGradient><linearGradient id="linear-gradient-27" x1="618.24" y1="141.41" x2="775.66" y2="245.15" xlink:href="#linear-gradient"></linearGradient><linearGradient id="linear-gradient-28" x1="650.37" y1="233.87" x2="655.75" y2="233.87" xlink:href="#linear-gradient"></linearGradient></defs><title>#232_designer_Monochromatic</title><path d="M313,108.76c-.43,12.85-5.5,25.09-11.35,36.55-9.87,19.37-22.37,38-28.14,59.09-2.53,9.21-1.25,18.94-2.12,27.94-.74,7.62-3,14.72-10.33,20.58-7.77,6.2-18.54,6.93-28.54,7-21.69.13-44.2-1.46-64.22,6.76-5.93,2.46-11.52,5.72-17.61,7.79-11.82,4-24.73,3.29-37.23,2.52-12.17-.77-24.54-1.58-36.06-5.45S55,260.27,49.66,249.4c-2.6-5.32-3.77-11.2-5.46-16.9A48,48,0,0,0,41.34,225C33.59,209.15,14.73,201.29,6,186,0,175.43-.34,162.69.15,150.56c.52-12.77,1.93-25.81,7.57-37.32C13.54,101.33,23.53,91.9,34.1,83.75,53.35,68.89,75.05,57.51,95.41,44.22c15.45-10.07,30.15-21.3,46.42-30.07s34.44-15,52.9-14.06c26.9,1.32,50.6,17.41,71.43,34.24,11.9,9.58,23.53,19.75,32.41,32.12S313.5,93.62,313,108.76Z" transform="translate(0 0)" fill="#68e1fd" opacity="0.24" style="isolation: isolate;"></path><path d="M271.35,232.34c-.74,7.62-3,14.72-10.33,20.58-7.77,6.2-18.54,6.93-28.54,7-21.69.13-44.2-1.46-64.22,6.76-5.93,2.46-11.52,5.72-17.61,7.79-11.82,4-24.73,3.29-37.23,2.52-12.17-.77-24.54-1.58-36.06-5.45S55,260.27,49.66,249.4c-2.6-5.32-3.77-11.2-5.46-16.9,32.38-8.07,67.88,4.89,100.18-4.15,7.58-2.14,14.79-5.43,22.45-7.27,19.93-4.81,36.48,2.63,55.84,4.79,16.14,1.78,30.46-.47,46.42,5.52A21.2,21.2,0,0,1,271.35,232.34Z" transform="translate(0 0)" fill="#68e1fd" opacity="0.24" style="isolation: isolate;"></path><rect x="218.32" y="152.25" width="10.82" height="89.21" fill="#68e1fd"></rect><rect x="218.52" y="152.25" width="10.82" height="89.21" fill="url(#linear-gradient)"></rect><rect x="6.15" y="13.89" width="109.29" height="147.08" fill="#68e1fd"></rect><rect x="6.15" y="13.89" width="109.29" height="147.08" fill="url(#linear-gradient-2)"></rect><ellipse cx="75.99" cy="81.7" rx="28.72" ry="28.36" fill="#68e1fd" opacity="0.3" style="isolation: isolate;"></ellipse><path d="M96,170.41h18.38a26.43,26.43,0,0,1,26.59,26.23V253.9H69.36V196.64A26.43,26.43,0,0,1,96,170.41Z" transform="translate(0 0)" fill="#68e1fd"></path><path d="M140.92,196.68V253.9H69.36V196.68a24.13,24.13,0,0,1,.67-5.8A26.49,26.49,0,0,1,96,170.41h18.37A26.44,26.44,0,0,1,140.92,196.68Z" transform="translate(0 0)" fill="url(#linear-gradient-3)"></path><path d="M140.92,196.68v18.68l-.45.57q-3.78-10-7.54-20.06c-3.77,7-4.62,15.16-4.07,23s2.35,15.61,3.66,23.4a9.65,9.65,0,0,1-.15,5.38c-1.48,3.47-6.59,4.16-9.77,2.1s-4.72-5.84-5.53-9.51c-2.28-10.55.11-21.5-.57-32.25-.26-3.77-1-7.68-3.27-10.71-3.32-4.29-9.1-5.75-14.45-6.95-7.58-1.69-15.94-3.27-22.74.41a8,8,0,0,1-3.42,1.32A3.34,3.34,0,0,1,70,190.84,26.47,26.47,0,0,1,96,170.38h18.37a26.44,26.44,0,0,1,26.58,26.3Z" transform="translate(0 0)" fill="url(#linear-gradient-4)"></path><path d="M97.58,95.79c-1,3-.68,6.24-.33,9.38.06.57.28,1.33.88,1.36a1.18,1.18,0,0,0,.65-.22,9,9,0,0,0,2.26-1.9,3.77,3.77,0,0,1,1.23-1.12c1.18-.53,2.42.49,3.59,1a5.38,5.38,0,0,0,3.16.43.68.68,0,0,0,.67-.45.73.73,0,0,0-.06-.41c-.61-1.57-2.15-2.57-3.15-3.94a9.14,9.14,0,0,1-1.54-4.57c-.13-1.27.43-3.52-.68-4.43C101.73,88.83,98.22,93.9,97.58,95.79Z" transform="translate(0 0)" fill="none" fill="#68e1fd" stroke-miterlimit="10" stroke-width="0.54"></path><path d="M113.84,95c.85.82,7.52,6.63,8.07,7.69a34.72,34.72,0,0,1,2.52,5.8,37.79,37.79,0,0,1,1.2,6.85l1.09,9.71a6.18,6.18,0,0,0,.78,2.82,6.59,6.59,0,0,0,2.42,1.86A130.28,130.28,0,0,0,146.64,137a23.49,23.49,0,0,1-.34,5.8.72.72,0,0,1-.25.51.8.8,0,0,1-.53,0c-9-1.6-17.51-5.45-26.54-6.93a3.2,3.2,0,0,1-1.47-.48,3,3,0,0,1-.82-1.29,52,52,0,0,1-2-5.25c-.84-2.58-1.36-5.24-2.14-7.83-.47-1.55-1-3.08-1.36-4.67a30.13,30.13,0,0,1-.22-7.41,21.07,21.07,0,0,1,.61-4.68C112.48,101.68,110.29,91.54,113.84,95Z" transform="translate(0 0)" fill="#68e1fd"></path><path d="M119.32,103.38c.86.82,2-1.8,2.59-.74a34.72,34.72,0,0,1,2.52,5.8,37.79,37.79,0,0,1,1.2,6.85l1.09,9.71a6.18,6.18,0,0,0,.78,2.82,6.59,6.59,0,0,0,2.42,1.86A130.28,130.28,0,0,0,146.64,137a23.49,23.49,0,0,1-.34,5.8.72.72,0,0,1-.25.51.8.8,0,0,1-.53,0c-9-1.6-17.51-5.45-26.54-6.93a3.2,3.2,0,0,1-1.47-.48,3,3,0,0,1-.82-1.29,52,52,0,0,1-2-5.25c-.84-2.58-1.36-5.24-2.14-7.83-.47-1.55-1-3.08-1.36-4.67a30.13,30.13,0,0,1-.22-7.41,21.07,21.07,0,0,1,.61-4.68C112.48,101.68,115.78,100,119.32,103.38Z" transform="translate(0 0)" fill="url(#linear-gradient-5)"></path><path d="M122.61,110.35l.49,14c.13,3.73,0,8-3,10.38-1.94,1.55-4.78,1.94-6.32,3.86a6.69,6.69,0,0,0-1.22,4.48c.09,3.17,1.25,6.2,2.46,9.16a4.9,4.9,0,0,1,.54,2.41c-.18,1.56-1.76,2.57-3.23,3.26a36.51,36.51,0,0,1-22.22,2.55,37.53,37.53,0,0,1-10.66-3.86,1.88,1.88,0,0,1-.89-.76,1.77,1.77,0,0,1,0-1.32c1.52-4.9,4.28-9.42,5.37-14.44,1.06-4.87.48-9.91.7-14.88a46.27,46.27,0,0,1,3.07-14.6,20.53,20.53,0,0,1,4.66-7.67c3.75-3.6,9.26-4.8,14.51-5.32a13.19,13.19,0,0,1,4.16.07A21.25,21.25,0,0,1,116,99.92c1.31.65,3.15.83,4.34,1.54C123,103.05,122.52,107.69,122.61,110.35Z" transform="translate(0 0)" fill="#68e1fd"></path><path d="M122.61,110.35l.49,14c.13,3.73,0,8-3,10.38-1.94,1.55-4.78,1.94-6.32,3.86a6.69,6.69,0,0,0-1.22,4.48c.09,3.17,1.25,6.2,2.46,9.16a4.9,4.9,0,0,1,.54,2.41c-.18,1.56-1.76,2.57-3.23,3.26a36.51,36.51,0,0,1-22.22,2.55,37.53,37.53,0,0,1-10.66-3.86,1.88,1.88,0,0,1-.89-.76,1.77,1.77,0,0,1,0-1.32c1.52-4.9,4.28-9.42,5.37-14.44,1.06-4.87.48-9.91.7-14.88a46.27,46.27,0,0,1,3.07-14.6,20.53,20.53,0,0,1,4.66-7.67c3.75-3.6,9.26-4.8,14.51-5.32a13.19,13.19,0,0,1,4.16.07A21.25,21.25,0,0,1,116,99.92c1.31.65,3.15.83,4.34,1.54C123,103.05,122.52,107.69,122.61,110.35Z" transform="translate(0 0)" fill="url(#linear-gradient-6)"></path><path d="M105.67,85a44.6,44.6,0,0,0-1,6.8,10.93,10.93,0,0,0,1,6.24,8.88,8.88,0,0,0,2.39,2.57,7.47,7.47,0,0,0,3.71,1.72,3.66,3.66,0,0,0,3.56-1.59,5.43,5.43,0,0,0,.21-3.6l-.6-3.66a11,11,0,0,0-1.23-4c-1.35-2.22-4-3.23-6.54-4" transform="translate(0 0)" fill="url(#linear-gradient-7)"></path><path d="M112.55,100a3.64,3.64,0,0,0,1.36.85,1.4,1.4,0,0,0,1.47-.4,2,2,0,0,0,.29-1.13c.07-1.3.12-2.6.15-3.91a11.61,11.61,0,0,0-.24-3.11,10.67,10.67,0,0,0-2.64-4.19c-1.12-1.24-3.16-3.57-5.09-3.49-2.11.08-1.43,3.12-1.22,4.46A18.69,18.69,0,0,0,112.55,100Z" transform="translate(0 0)" fill="url(#linear-gradient-8)"></path><path d="M88.52,102.29a41.4,41.4,0,0,0-2.19,6.59c-.71,2.4-1.56,4.76-2.11,7.21a59.09,59.09,0,0,0-1.07,9.18c-.21,3.18-.41,6.37-.41,9.58,0,2.38.21,5,1.93,6.69,1.33,1.29,3.28,1.72,5.14,2.06a154.1,154.1,0,0,0,20.09,2.32,2,2,0,0,0,1.39-.3,1.8,1.8,0,0,0,.45-1,19.78,19.78,0,0,0,.3-4.86l-16.7-5.15c-.26-8.67,3.79-16.9,5-25.47a47.77,47.77,0,0,1,.81-5.32c.46-1.75,1.23-3.41,1.66-5.16.34-1.42.77-4.39-1-5-1.4-.49-3.77.57-5,1.07A16,16,0,0,0,88.52,102.29Z" transform="translate(0 0)" fill="#68e1fd"></path><path d="M121.91,140.41a43.48,43.48,0,0,1,7.56-.52,10.19,10.19,0,0,1,6.85,2.81,3.8,3.8,0,0,1,1.09,2,2,2,0,0,1-.85,2c-.79.47-1.78.2-2.7.19-2.16,0-4.26,1.5-6.33.93-1.29-.36-2.33-1.48-3.67-1.53a4.66,4.66,0,0,0-2.53,1.07,3.53,3.53,0,0,1-2.67.2,22.68,22.68,0,0,1-3-1.36,11.22,11.22,0,0,0-4-1,2,2,0,0,1-1.3-.37,1.65,1.65,0,0,1-.38-1,4.5,4.5,0,0,1,.14-2.16,2,2,0,0,1,1.59-1.31,3.86,3.86,0,0,1,.89.1,17.74,17.74,0,0,0,3.34.2c1,0,1.93-.17,2.91-.16A26.86,26.86,0,0,0,121.91,140.41Z" transform="translate(0 0)" fill="url(#linear-gradient-9)"></path><path d="M160.2,138.87a57.79,57.79,0,0,1,6.31.26,13.73,13.73,0,0,1,4.9,1.32,6.4,6.4,0,0,1,3.26,3.7c-2.46,1.33-5.87-.1-8.17,1.49q-.7.57-1.35,1.2c-1.87,1.6-4.53,1.9-7,1.89a15.06,15.06,0,0,1-5.94-.94c-1.76-.75-9.62-6.69-6.85-8.6,1.49-1,4.76-.39,6.44-.38Z" transform="translate(0 0)" fill="url(#linear-gradient-10)"></path><polygon points="139.29 146.02 139.93 143.79 164.22 142.89 164.6 145.83 139.29 146.02" fill="#68e1fd"></polygon><polygon points="139.29 146.02 139.93 143.79 164.22 142.89 164.6 145.83 139.29 146.02" fill="url(#linear-gradient-11)"></polygon><polygon points="210.51 133.48 142.54 133.48 151.65 85.62 219.62 85.62 210.51 133.48" fill="#68e1fd"></polygon><polygon points="219.61 85.62 210.51 133.48 142.54 133.48 151.64 85.62 219.61 85.62" fill="url(#linear-gradient-12)"></polygon><polygon points="219.61 85.62 210.51 133.48 145.29 133.48 154.39 85.62 219.61 85.62" fill="url(#linear-gradient-13)"></polygon><polygon points="174.86 111.6 183.2 143.12 164.6 143.12 162.16 145.83 196.01 145.83 185.64 108.79 176.34 108.49 174.86 111.6" fill="#68e1fd"></polygon><polygon points="174.86 111.6 183.2 143.12 164.6 143.12 162.16 145.83 196.01 145.83 185.64 108.79 176.34 108.49 174.86 111.6" fill="url(#linear-gradient-14)"></polygon><polygon points="176.34 108.49 185.64 143.12 164.6 143.12 164.6 145.83 198.45 145.83 188.08 108.79 176.34 108.49" fill="#68e1fd"></polygon><path d="M174.45,244.15a1.39,1.39,0,0,1-.5,1c-5,5.17-13.54,4.95-20.23,2.31a6.93,6.93,0,0,1-3.12-2.06,7.38,7.38,0,0,1-1-4c-.52-12.36-.57-24.8-2.79-37-.73-4.1-1.71-8.17-2.23-12.31-.71-6-.39-12-.63-18a1.7,1.7,0,0,0-.39-1.24,1.64,1.64,0,0,0-1.19-.32l-5.37-.09c0,12.58-.89,24.56-.65,37.13.15,7.23-1.41,14.39-1.82,21.62a15,15,0,0,0,.15,3.78c.85,4,4.48,6.68,6.67,10.12a5.08,5.08,0,0,1,1,2.91,4.06,4.06,0,0,1-3.24,3.34,9.88,9.88,0,0,1-4.94-.39,11.78,11.78,0,0,1-3.43-1.39,11.63,11.63,0,0,1-2.24-2.08c-1.31-1.45-2.56-3-3.75-4.5a6.73,6.73,0,0,1-1.15-1.95c-.6-1.93.58-3.89,1.41-5.73a19.48,19.48,0,0,0,1.14-12.83,37.06,37.06,0,0,1-1.47-9.58q-.1-16.17-.5-32.34a121.71,121.71,0,0,1-24.73.66c-5.55-.38-11.49-1.34-15.52-5.13-4.35-4.06-5.48-10.45-5.6-16.34,0-2.1,0-4.28,1.06-6.08,8-.06,18.93.8,27,.73a25,25,0,0,1,5.53.37,21.67,21.67,0,0,0,2.42.13,132.68,132.68,0,0,1,20.77,2h.11A44.31,44.31,0,0,1,150,162.11c.39.24.79.47,1.14.73a21.05,21.05,0,0,1,2.09,1.6l.06.06a14.17,14.17,0,0,1,4.83,9.18c.07.64.13,1.39.18,2.22s.06,1.8.06,2.82v1.16c.11,10.7-.76,28.74.24,42.77.45,6.2,1.84,13.24,7.17,16.61,2.57,1.65,5.78,2.2,8.16,4.13A1.24,1.24,0,0,1,174.45,244.15Z" transform="translate(0 0)" fill="#606161"></path><path d="M174.45,244.15a1.39,1.39,0,0,1-.5,1c-5,5.17-13.54,4.95-20.23,2.31a6.93,6.93,0,0,1-3.12-2.06,7.38,7.38,0,0,1-1-4c-.52-12.36-.57-24.8-2.79-37-.73-4.1-1.71-8.17-2.23-12.31-.71-6-.39-12-.63-18a1.7,1.7,0,0,0-.39-1.24,1.64,1.64,0,0,0-1.19-.32l-5.37-.09c0,12.58-.89,24.56-.65,37.13.15,7.23-1.41,14.39-1.82,21.62a15,15,0,0,0,.15,3.78c.85,4,4.48,6.68,6.67,10.12a5.08,5.08,0,0,1,1,2.91,4.06,4.06,0,0,1-3.24,3.34,9.88,9.88,0,0,1-4.94-.39,11.78,11.78,0,0,1-3.43-1.39,11.63,11.63,0,0,1-2.24-2.08c-1.31-1.45-2.56-3-3.75-4.5a6.73,6.73,0,0,1-1.15-1.95c-.6-1.93.58-3.89,1.41-5.73a19.48,19.48,0,0,0,1.14-12.83,37.06,37.06,0,0,1-1.47-9.58q-.1-16.17-.5-32.34a121.71,121.71,0,0,1-24.73.66c-5.55-.38-11.49-1.34-15.52-5.13-4.35-4.06-5.48-10.45-5.6-16.34,0-2.1,0-4.28,1.06-6.08,8-.06,18.93.8,27,.73a25,25,0,0,1,5.53.37,21.67,21.67,0,0,0,2.42.13,132.68,132.68,0,0,1,20.77,2h.11A44.31,44.31,0,0,1,150,162.11c.39.24.79.47,1.14.73a21.05,21.05,0,0,1,2.09,1.6l.06.06a14.17,14.17,0,0,1,4.83,9.18c.07.64.13,1.39.18,2.22s.06,1.8.06,2.82v1.16c.11,10.7-.76,28.74.24,42.77.45,6.2,1.84,13.24,7.17,16.61,2.57,1.65,5.78,2.2,8.16,4.13A1.24,1.24,0,0,1,174.45,244.15Z" transform="translate(0 0)" fill="url(#linear-gradient-15)"></path><path d="M174.45,244.15a1.39,1.39,0,0,1-.5,1c-5,5.17-13.54,4.95-20.23,2.31a6.93,6.93,0,0,1-3.12-2.06,7.38,7.38,0,0,1-1-4c-.52-12.36-.57-24.8-2.79-37-.73-4.1-1.71-8.17-2.23-12.31-.71-6-.39-12-.63-18a1.7,1.7,0,0,0-.39-1.24,1.64,1.64,0,0,0-1.19-.32l-5.37-.09s.15-3.71-1.21-5.36-25.78-9.2-25.78-9.2-1.56-2,4.25-3l1.34-.18c3.59-.42,11.57.39,19.4,2.18h.11a59.39,59.39,0,0,1,14.8,5.22c.38.24.78.48,1.14.73a14.09,14.09,0,0,1,2.08,1.61l.06.06a8.16,8.16,0,0,1,1,1.2,22.24,22.24,0,0,1,4,10.2,15.64,15.64,0,0,1,.07,2.82,5.7,5.7,0,0,1-.09.83l.11.32c.11,10.71-.76,28.74.24,42.77.45,6.2,1.84,13.24,7.17,16.61,2.57,1.65,5.78,2.21,8.16,4.14A1.27,1.27,0,0,1,174.45,244.15Z" transform="translate(0 0)" fill="url(#linear-gradient-16)"></path><rect x="94.57" y="145.92" width="145.88" height="7.62" fill="#68e1fd"></rect><rect x="118.71" y="152.25" width="10.82" height="106.47" fill="#68e1fd"></rect><rect x="94.57" y="145.92" width="145.92" height="2.56" fill="url(#linear-gradient-17)"></rect><rect x="131.06" y="153.15" width="42.89" height="7.83" fill="#68e1fd"></rect><rect x="131.06" y="153.15" width="42.89" height="3.92" fill="url(#linear-gradient-18)"></rect><path d="M123.55,97a6.77,6.77,0,0,1-3.13,1.88c-1.91.36-3.76-.78-5.25-2a30.32,30.32,0,0,1-8.44-11.2A36.81,36.81,0,0,0,105,81.83a26.16,26.16,0,0,1-2.49-4.16c-.53-1.53-.26-5.19,1.2-5.9a11.77,11.77,0,0,1,1.43-.43c1.77-.56,3.08-.41,4.25-1.84,2.62-3.18,5.77-6.45,9.9-6.92,2.74-.31,5.44.7,8,1.83s6,3,7.2,5.54.19,6.29-.39,8.86A35.58,35.58,0,0,1,123.55,97Z" transform="translate(0 0)" fill="url(#linear-gradient-19)"></path><path d="M122.3,67.86c.06,1.69,2,2.69,3.62,3s3.55.33,4.85,1.43c1,.85,1.65,2.31,3,2.47a2.63,2.63,0,0,0,1.71-.52,6.36,6.36,0,0,0,2.44-6.2,12.85,12.85,0,0,0-3.19-6.18,25.79,25.79,0,0,0-21.91-9.21c-8.21.85-15.86,6.64-18.34,14.43-1.31,4.14-1.21,8.58-2.1,12.84a28.47,28.47,0,0,1-6.49,13c-3.42,3.86-8.09,7.19-9,12.23a12.85,12.85,0,0,0,2.4,9.29,38.13,38.13,0,0,0,6.88,7.08c2.49-4.12,7.91-5.26,11.92-8a16.36,16.36,0,0,0,7-15.14,24.27,24.27,0,0,1,0-7.32c.21-2.15,1.83-3.24,1.59-5.38-.16-1.37-3.23-7-3.6-8.31-.63-2.21,0-5.38,2.94-5.37,2.45,0,3.93,3.09,4.62,5C113,76.15,122.41,70.84,122.3,67.86Z" transform="translate(0 0)" fill="#606161"></path><path d="M122.3,67.86c.06,1.69,2,2.69,3.62,3s3.55.33,4.85,1.43c1,.85,1.65,2.31,3,2.47a2.63,2.63,0,0,0,1.71-.52,6.36,6.36,0,0,0,2.44-6.2,12.85,12.85,0,0,0-3.19-6.18,25.79,25.79,0,0,0-21.91-9.21c-8.21.85-15.86,6.64-18.34,14.43-1.31,4.14-1.21,8.58-2.1,12.84a28.47,28.47,0,0,1-6.49,13c-3.42,3.86-8.09,7.19-9,12.23a12.85,12.85,0,0,0,2.4,9.29,38.13,38.13,0,0,0,6.88,7.08c2.49-4.12,7.91-5.26,11.92-8a16.36,16.36,0,0,0,7-15.14,24.27,24.27,0,0,1,0-7.32c.21-2.15,1.83-3.24,1.59-5.38-.16-1.37-3.23-7-3.6-8.31-.63-2.21,0-5.38,2.94-5.37,2.45,0,3.93,3.09,4.62,5C113,76.15,122.41,70.84,122.3,67.86Z" transform="translate(0 0)" fill="url(#linear-gradient-20)"></path><rect x="167.81" y="39.87" width="100.55" height="29" transform="translate(-0.15 0.61) rotate(-0.16)" fill="#fff"></rect><rect x="174.86" y="47.85" width="12.28" height="19.51" transform="translate(-0.23 0.73) rotate(-0.23)" fill="#68e1fd"></rect><rect x="174.86" y="47.85" width="12.28" height="19.51" transform="translate(-0.23 0.73) rotate(-0.23)" fill="url(#linear-gradient-21)"></rect><rect x="187.06" y="47.84" width="12.28" height="19.51" transform="matrix(1, 0, 0, 1, -0.23, 0.78)" fill="#68e1fd"></rect><rect x="187.06" y="47.84" width="12.28" height="19.51" transform="matrix(1, 0, 0, 1, -0.23, 0.78)" fill="url(#linear-gradient-22)"></rect><rect x="199.27" y="47.82" width="12.28" height="19.51" transform="matrix(1, 0, 0, 1, -0.23, 0.83)" fill="#68e1fd"></rect><rect x="199.27" y="47.82" width="12.28" height="19.51" transform="matrix(1, 0, 0, 1, -0.23, 0.83)" fill="url(#linear-gradient-23)"></rect><rect x="211.48" y="47.8" width="12.28" height="19.51" transform="translate(-0.22 0.88) rotate(-0.23)" fill="#68e1fd"></rect><rect x="211.48" y="47.8" width="12.28" height="19.51" transform="translate(-0.22 0.88) rotate(-0.23)" fill="url(#linear-gradient-24)"></rect><polyline points="260.39 67.3 223.72 67.3 223.72 47.78 260.39 47.78" fill="#68e1fd"></polyline><rect x="248.1" y="47.78" width="12.28" height="19.51" transform="matrix(1, 0, 0, 1, -0.22, 1.02)" fill="#68e1fd"></rect><polygon points="248.07 67.37 235.77 67.28 235.68 47.76 247.97 47.85 248.07 67.37" fill="url(#linear-gradient-25)"></polygon><rect x="248.1" y="47.84" width="12.28" height="19.51" transform="matrix(1, 0, 0, 1, -0.22, 1.02)" fill="url(#linear-gradient-26)"></rect><rect x="115.06" y="152.25" width="10.82" height="106.47" fill="#68e1fd"></rect><rect x="115.06" y="152.25" width="10.82" height="106.47" fill="url(#linear-gradient-27)"></rect><polygon points="124.76 140 121.1 128.16 122.42 127.46 126.48 140.11 124.76 140" fill="#68e1fd"></polygon><polygon points="124.76 140 121.1 128.16 122.42 127.46 126.48 140.11 124.76 140" fill="url(#linear-gradient-28)"></polygon><ellipse cx="62.15" cy="48.28" rx="28.72" ry="28.36" fill="#68e1fd" opacity="0.51" style="isolation: isolate;"></ellipse><ellipse cx="42.75" cy="83.51" rx="28.72" ry="28.36" fill="#68e1fd" opacity="0.51" style="isolation: isolate;"></ellipse><polygon points="53.38 82.75 53.91 92.84 56.51 89.07 59.65 93.89 61.64 92.53 58.03 88.09 62.15 87.42 53.38 82.75" fill="#fff"></polygon><rect x="20.58" y="126.66" width="51.22" height="4.82" fill="#68e1fd" opacity="0.51" style="isolation: isolate;"></rect><rect x="20.58" y="131.27" width="51.22" height="4.82" fill="#68e1fd" opacity="0.51" style="isolation: isolate;"></rect><rect x="20.58" y="131.27" width="51.22" height="4.82" fill="#68e1fd" opacity="0.51" style="isolation: isolate;"></rect></svg>